<svg xmlns="http://www.w3.org/2000/svg" xmlns:xlink="http://www.w3.org/1999/xlink" width="500" zoomAndPan="magnify" viewBox="0 0 375 374.999991" height="500" preserveAspectRatio="xMidYMid meet" version="1.0"><defs><g/><clipPath id="002b5e56ac"><path d="M 111.503906 93.308594 L 276.179688 93.308594 L 276.179688 281.972656 L 111.503906 281.972656 Z M 111.503906 93.308594 " clip-rule="nonzero"/></clipPath></defs><g clip-path="url(#002b5e56ac)"><path fill="#ffffff" d="M 117.210938 143.902344 L 193.84375 99.933594 L 270.472656 143.902344 L 270.472656 231.84375 L 193.84375 275.851562 L 117.210938 231.84375 L 117.210938 143.902344 M 111.503906 140.613281 L 111.503906 235.132812 L 193.84375 282.390625 L 276.179688 235.132812 L 276.179688 140.613281 L 193.84375 93.355469 Z M 111.503906 140.613281 " fill-opacity="1" fill-rule="nonzero"/></g><g fill="#ffffff" fill-opacity="1"><g transform="translate(155.563199, 210.507551)"><g><path d="M 1.53125 0 L 13.890625 -45.90625 L 24.671875 -45.90625 L 36.71875 0 L 28.5 0 L 25.75 -11.53125 L 12.4375 -11.53125 L 9.6875 0 Z M 13.96875 -17.84375 L 24.21875 -17.84375 L 20.34375 -34.234375 C 20.164062 -34.992188 20.003906 -35.753906 19.859375 -36.515625 C 19.710938 -37.285156 19.59375 -37.96875 19.5 -38.5625 C 19.414062 -39.25 19.332031 -39.929688 19.25 -40.609375 L 18.9375 -40.609375 C 18.851562 -39.929688 18.765625 -39.25 18.671875 -38.5625 C 18.585938 -37.96875 18.484375 -37.285156 18.359375 -36.515625 C 18.234375 -35.753906 18.0625 -34.992188 17.84375 -34.234375 Z M 13.96875 -17.84375 "/></g></g></g><g fill="#ffffff" fill-opacity="1"><g transform="translate(193.807061, 210.507551)"><g><path d="M 20.59375 -45.90625 C 22.882812 -45.90625 24.972656 -45.570312 26.859375 -44.90625 C 28.753906 -44.25 30.359375 -43.316406 31.671875 -42.109375 C 32.992188 -40.898438 34.015625 -39.429688 34.734375 -37.703125 C 35.460938 -35.984375 35.828125 -34.0625 35.828125 -31.9375 C 35.828125 -29.851562 35.460938 -27.953125 34.734375 -26.234375 C 34.015625 -24.515625 32.984375 -23.046875 31.640625 -21.828125 C 30.304688 -20.617188 28.703125 -19.6875 26.828125 -19.03125 C 24.960938 -18.375 22.882812 -18.046875 20.59375 -18.046875 L 12.6875 -18.046875 L 12.6875 0 L 4.71875 0 L 4.71875 -45.90625 Z M 12.6875 -39.140625 L 12.6875 -24.796875 L 20.59375 -24.796875 C 22.800781 -24.796875 24.539062 -25.441406 25.8125 -26.734375 C 27.09375 -28.035156 27.734375 -29.769531 27.734375 -31.9375 C 27.734375 -34.101562 27.09375 -35.84375 25.8125 -37.15625 C 24.539062 -38.476562 22.800781 -39.140625 20.59375 -39.140625 Z M 12.6875 -39.140625 "/></g></g></g></svg>